HIERARCHY
ROOT Pelvis
{
	OFFSET 0.000000 0.000000 0.000000
	CHANNELS 6 Xposition Yposition Zposition Zrotation Yrotation Xrotation 
	JOINT Left_hip
	{
		OFFSET 0.068973 -0.091024 -0.007589
		CHANNELS 3 Zrotation Yrotation Xrotation
		JOINT Left_knee
		{
			OFFSET 0.036482 -0.391037 -0.003979
			CHANNELS 3 Zrotation Yrotation Xrotation
			JOINT Left_ankle
			{
				OFFSET -0.012239 -0.415469 -0.043440
				CHANNELS 3 Zrotation Yrotation Xrotation
				JOINT Left_foot
				{
					OFFSET 0.023806 -0.058558 0.118702
					CHANNELS 3 Zrotation Yrotation Xrotation
					End Site
					{
						OFFSET 0.000000 0.000000 0.000000
					}
				}
			}
		}
	}
	JOINT Right_hip
	{
		OFFSET -0.066552 -0.090468 -0.003847
		CHANNELS 3 Zrotation Yrotation Xrotation
		JOINT Right_knee
		{
			OFFSET -0.042435 -0.398340 -0.006400
			CHANNELS 3 Zrotation Yrotation Xrotation
			JOINT Right_ankle
			{
				OFFSET 0.014931 -0.415421 -0.041327
				CHANNELS 3 Zrotation Yrotation Xrotation
				JOINT Right_foot
				{
					OFFSET -0.021472 -0.049410 0.121889
					CHANNELS 3 Zrotation Yrotation Xrotation
					End Site
					{
						OFFSET 0.000000 0.000000 0.000000
					}
				}
			}
		}
	}
	JOINT Spine1
	{
		OFFSET -0.002904 0.105700 -0.022855
		CHANNELS 3 Zrotation Yrotation Xrotation
		JOINT Spine2
		{
			OFFSET 0.004179 0.132554 -0.002501
			CHANNELS 3 Zrotation Yrotation Xrotation
			JOINT Spine3
			{
				OFFSET 0.001987 0.049603 0.025988
				CHANNELS 3 Zrotation Yrotation Xrotation
				JOINT Neck
				{
					OFFSET -0.003935 0.211336 -0.045638
					CHANNELS 3 Zrotation Yrotation Xrotation
					JOINT Head
					{
						OFFSET 0.003906 0.065991 0.051018
						CHANNELS 3 Zrotation Yrotation Xrotation
						End Site
						{
							OFFSET 0.000000 0.000000 0.000000
						}
					}
				}
				JOINT Left_collar
				{
					OFFSET 0.072882 0.117751 -0.036270
					CHANNELS 3 Zrotation Yrotation Xrotation
					JOINT Left_shoulder
					{
						OFFSET 0.082118 0.032630 -0.005771
						CHANNELS 3 Zrotation Yrotation Xrotation
						JOINT Left_elbow
						{
							OFFSET 0.263305 -0.015144 -0.028095
							CHANNELS 3 Zrotation Yrotation Xrotation
							JOINT Left_wrist
							{
								OFFSET 0.250741 0.010115 -0.000759
								CHANNELS 3 Zrotation Yrotation Xrotation
								JOINT Left_palm
								{
									OFFSET 0.080683 -0.009989 -0.013613
									CHANNELS 3 Zrotation Yrotation Xrotation
									End Site
									{
										OFFSET 0.000000 0.000000 0.000000
									}
								}
							}
						}
					}
				}
				JOINT Right_collar
				{
					OFFSET -0.074811 0.116132 -0.040385
					CHANNELS 3 Zrotation Yrotation Xrotation
					JOINT Right_shoulder
					{
						OFFSET -0.085089 0.032943 -0.007484
						CHANNELS 3 Zrotation Yrotation Xrotation
						JOINT Right_elbow
						{
							OFFSET -0.254763 -0.014219 -0.020321
							CHANNELS 3 Zrotation Yrotation Xrotation
							JOINT Right_wrist
							{
								OFFSET -0.256597 0.009233 -0.005063
								CHANNELS 3 Zrotation Yrotation Xrotation
								JOINT Right_palm
								{
									OFFSET -0.080528 -0.007219 -0.010379
									CHANNELS 3 Zrotation Yrotation Xrotation
									End Site
									{
										OFFSET 0.000000 0.000000 0.000000
									}
								}
							}
						}
					}
				}
			}
		}
	}
}
MOTION
Frames: 10
Frame Time: 0.100000
-0.224780 0.284073 0.929318 -168.062871 3.795183 -25.475621 15.692717 5.876928 -71.813117 -4.995121 23.875359 115.234879 5.651933 10.188215 -21.117289 10.310275 8.105901 -17.589453 -25.993938 4.321160 2.535377 14.338465 12.883107 117.832508 15.264832 5.522398 -16.565230 -26.999883 -3.401503 -19.170058 10.033249 5.063383 21.988741 5.418819 -12.093900 7.976420 2.247805 3.334470 -2.236907 -16.900325 2.554503 24.483376 -2.073462 -0.896539 -20.341143 2.790425 -29.019175 -6.035509 -8.468001 -26.261927 -22.788848 114.823851 -62.177533 -68.976396 42.677409 -22.047404 4.991182 -17.341773 -6.263339 5.000073 -1.388200 34.812733 -6.634919 20.672789 37.615466 -14.613669 -124.677060 65.306752 -87.018296 -41.382795 25.934084 2.272379 18.778166 3.977148 4.256876 
-0.197496 0.290284 0.904600 -168.480166 7.299314 -22.785351 16.019265 7.172399 -76.267325 -7.298108 24.240083 110.955006 3.586830 8.082329 -17.227990 12.341126 8.083270 -17.442425 -23.776250 2.246773 -1.999931 14.599693 9.816272 121.740023 16.560962 5.563273 -15.237793 -30.486598 -4.955494 -21.207446 8.184759 3.785845 28.610079 1.920206 -12.691072 5.981902 1.756709 2.736516 -0.598881 -16.462098 2.120990 21.576767 2.687142 2.512668 -25.278846 4.240064 -31.590815 -7.610430 -7.222647 -26.949116 -24.318364 111.082701 -60.630672 -64.463043 41.014386 -22.940381 8.758416 -16.327895 -6.463420 4.222730 -8.281831 33.748261 -9.080588 14.873552 35.779543 -21.622689 -119.706431 64.472106 -81.670184 -38.397350 25.914041 3.854235 17.280046 4.284118 4.268864 
-0.172623 0.291861 0.896303 -168.677775 9.983824 -21.340542 16.201837 8.791643 -78.006577 -9.111277 24.452244 107.978580 1.743869 6.440173 -13.555028 13.436605 7.866187 -18.467094 -21.758338 0.590074 -3.735600 14.244184 7.724313 123.521867 17.452754 4.586355 -14.717967 -32.890979 -5.163987 -21.735698 6.800805 3.499907 32.424919 -0.266749 -12.632096 4.091114 1.411563 2.572042 0.906599 -16.440900 1.143503 20.167321 5.009714 3.014044 -26.759826 5.943882 -32.704828 -8.654072 -7.211497 -28.018203 -24.719087 111.310023 -61.044487 -64.133095 42.093689 -23.502329 9.816122 -16.450077 -6.808181 3.413338 -11.931266 32.498854 -10.293531 12.828949 33.051524 -24.891570 -118.689685 64.070105 -79.712834 -39.351046 26.002374 4.231863 17.140462 4.769146 3.907995 
-0.148660 0.291479 0.895198 -169.247314 11.726267 -20.560575 16.633559 10.603097 -78.364821 -10.809741 24.310003 105.700568 -0.363199 6.451809 -11.957185 15.923134 6.746041 -19.187317 -19.272187 -0.700429 -4.168722 13.437338 5.617426 124.115182 17.066884 2.677498 -15.031285 -33.467281 -4.715162 -22.058897 4.828188 3.394422 33.621465 -2.108897 -12.685363 4.328734 0.967002 1.855519 1.650091 -15.003766 1.152365 17.776698 5.667721 3.191028 -25.835492 6.275632 -32.487598 -8.340573 -5.203807 -28.457362 -25.888495 109.143275 -61.508801 -63.278058 42.636661 -23.941189 10.523543 -17.014880 -7.073457 2.165393 -13.116314 31.982541 -10.507463 11.138294 31.943088 -26.353709 -118.581149 63.477410 -80.415100 -40.478183 25.236005 1.657219 16.851980 4.711992 4.949238 
-0.134158 0.291235 0.898066 -169.931200 13.474524 -19.997905 17.626402 11.713872 -78.056334 -9.934815 24.274449 105.723443 0.286793 8.185870 -14.537422 15.201378 6.671094 -18.088928 -17.890930 -1.408083 -3.820941 13.535992 4.239229 123.758829 16.990134 3.429146 -14.766058 -32.633195 -5.048337 -21.792241 3.380157 3.983834 33.900626 -2.464964 -12.871228 3.784824 0.849262 1.534848 1.862528 -14.184560 1.309137 17.130580 6.622972 3.182121 -25.570472 6.023614 -33.044334 -8.233207 -5.000672 -29.050265 -26.090161 106.833927 -61.438287 -61.526938 41.923003 -24.092962 11.376733 -16.514751 -6.553964 1.729679 -13.546353 31.168819 -10.727814 10.699585 30.185500 -27.110849 -120.530044 63.678242 -82.092079 -39.854913 25.089396 1.777436 16.927301 4.101392 5.522746 
-0.133727 0.289158 0.900804 -170.118866 13.643502 -18.834950 20.365409 13.344830 -76.960033 -2.543920 23.836088 108.227359 1.030244 16.567778 -13.525460 15.168688 5.870573 -16.697880 -17.608058 -1.094516 -4.684886 13.398048 3.433123 123.305752 16.605383 3.881677 -14.628023 -31.760995 -5.374513 -21.633803 2.499607 4.727518 32.339796 -1.722538 -12.599420 4.575909 1.053543 1.402331 1.051450 -13.968850 1.577776 17.300656 7.095266 2.790636 -25.489632 5.589581 -32.140889 -7.759182 -4.474952 -29.435107 -26.707167 106.757054 -61.960074 -61.665857 41.817222 -23.103253 11.207154 -16.170528 -5.479627 2.854237 -12.742477 30.017366 -10.279056 10.205956 29.800767 -27.298275 -122.829854 64.338800 -84.676061 -39.190752 24.393515 2.247551 18.172835 3.274842 6.235264 
-0.144988 0.287428 0.904083 -169.988395 13.143032 -18.755531 20.025262 13.412142 -76.789726 -3.189790 23.949471 108.538141 1.044463 14.621099 -12.551522 14.433558 6.470156 -17.275087 -18.952922 -1.262747 -4.208271 12.863453 4.180311 122.552996 15.992942 3.393306 -15.272131 -30.871424 -5.142056 -20.679882 3.660211 4.925950 31.598794 -0.569923 -12.071167 4.005797 1.673730 1.828886 0.818756 -13.128023 1.795134 17.862575 6.408917 2.332181 -24.855223 5.813934 -31.857205 -8.031928 -4.962059 -29.286005 -26.104288 108.203397 -62.293862 -63.387016 41.502272 -22.550556 9.750414 -16.857277 -6.004332 2.998768 -12.188213 30.005198 -9.940695 10.277406 28.843405 -26.558514 -124.558898 64.466416 -86.550027 -38.842075 24.251296 2.340692 18.757149 4.057343 5.179350 
-0.162901 0.289820 0.900622 -168.555408 12.232620 -17.490374 18.884738 14.034281 -78.478093 -2.205635 24.702507 110.206637 1.254605 12.910020 -11.010512 13.146057 6.413144 -18.294228 -22.563996 -1.565857 -6.204366 12.831106 5.621908 123.221126 16.790305 3.452885 -15.913643 -32.569971 -4.611445 -20.172079 7.349203 4.037367 31.955351 0.439548 -11.133534 1.380445 2.137867 2.845170 0.934672 -16.120875 1.416346 17.758314 3.238013 1.648820 -24.838388 6.845765 -31.699469 -9.132633 -6.607617 -26.731637 -25.668540 111.457278 -61.159960 -65.557819 42.832085 -21.607916 7.230836 -17.181209 -6.966310 3.807065 -13.157497 31.059552 -10.190704 8.486021 28.374987 -27.639644 -127.417999 64.110702 -90.296709 -40.055889 24.463201 1.540836 19.296551 5.082418 2.829405 
-0.179930 0.292804 0.890583 -164.835899 11.920458 -16.352215 16.868107 13.866813 -80.074384 -6.594649 24.623494 109.655840 -1.550755 5.964054 -6.854774 12.990690 6.439712 -21.476557 -28.540271 -3.156148 -8.872313 12.509003 7.847784 125.048196 18.631937 2.326912 -16.713987 -37.135735 -3.833942 -20.982562 11.565084 2.273194 34.013190 -0.954030 -10.445212 -1.605834 1.705934 4.110590 1.715963 -20.705310 -0.911242 17.372814 1.429368 2.589588 -24.942461 4.706885 -33.509858 -9.601821 -8.173116 -23.818804 -24.369583 116.068171 -59.551773 -70.367240 44.619743 -21.897138 4.586231 -19.396021 -9.444116 4.614817 -14.431126 32.598159 -9.854152 5.693593 24.493260 -29.428244 -129.550132 64.594859 -94.285615 -39.262989 26.156688 2.602462 19.841181 8.126895 -0.518278 
-0.188440 0.296641 0.876019 -160.916091 11.060969 -14.955292 15.054144 12.235585 -80.270361 -15.368366 22.726371 105.744896 -3.597218 -3.335130 -8.016756 11.114641 6.954760 -22.714866 -33.129100 -4.804279 -12.681452 12.507171 9.893983 127.484895 20.498843 1.263419 -18.088438 -40.370546 -3.069801 -20.744551 14.111791 0.687949 36.502088 -2.733201 -9.615995 -4.023435 1.449813 5.208744 2.881204 -24.115175 -2.798884 19.044660 1.492658 3.411780 -26.094734 3.213747 -35.402651 -11.391884 -10.278962 -21.104639 -21.546894 120.735286 -59.118805 -75.544048 47.108500 -23.706039 1.953348 -21.281738 -11.515283 4.250519 -16.864710 32.924557 -9.965253 3.121848 17.986779 -30.545016 -131.498113 65.592582 -98.038820 -40.296645 28.590873 1.094387 19.971667 10.464763 -3.042648 
